<svg xmlns="http://www.w3.org/2000/svg" width="1592" height="776" style="cursor: move;"><g transform="translate(307.0683084770336,-45.70102808845451) scale(1.000000000000002)"><rect class="rect" id="0_0" width="10" height="10" x="319" y="383" style="fill: rgb(84, 232, 207); stroke: black; stroke-width: 1.63; opacity: 1;"></rect><rect class="rect" id="1_0" width="10" height="10" x="429" y="355" style="fill: rgb(84, 232, 207); stroke: black; stroke-width: 1.63; opacity: 1;"></rect><rect class="rect" id="1_1" width="10" height="10" x="437" y="363" style="fill: rgb(56, 194, 91); stroke: black; stroke-width: 1.63; opacity: 1;"></rect><rect class="rect" id="1_2" width="10" height="10" x="445" y="371" style="fill: rgb(84, 232, 207); stroke: black; stroke-width: 1.63; opacity: 1;"></rect><rect class="rect" id="1_3" width="10" height="10" x="453" y="379" style="fill: rgb(56, 194, 91); stroke: black; stroke-width: 1.63; opacity: 1;"></rect><rect class="rect" id="1_4" width="10" height="10" x="461" y="387" style="fill: rgb(84, 232, 207); stroke: black; stroke-width: 1.63; opacity: 1;"></rect><rect class="rect" id="1_5" width="10" height="10" x="469" y="395" style="fill: rgb(56, 194, 91); stroke: black; stroke-width: 1.63; opacity: 1;"></rect><rect class="rect" id="1_6" width="10" height="10" x="477" y="403" style="fill: rgb(84, 232, 207); stroke: black; stroke-width: 1.63; opacity: 1;"></rect><rect class="rect" id="1_7" width="10" height="10" x="485" y="411" style="fill: rgb(56, 194, 91); stroke: black; stroke-width: 1.63; opacity: 1;"></rect><rect class="rect" id="2_0" width="10" height="10" x="587" y="355" style="fill: rgb(84, 232, 207); stroke: black; stroke-width: 1.63; opacity: 1;"></rect><rect class="rect" id="2_1" width="10" height="10" x="595" y="363" style="fill: rgb(56, 194, 91); stroke: black; stroke-width: 1.63; opacity: 1;"></rect><rect class="rect" id="2_2" width="10" height="10" x="603" y="371" style="fill: rgb(84, 232, 207); stroke: black; stroke-width: 1.63; opacity: 1;"></rect><rect class="rect" id="2_3" width="10" height="10" x="611" y="379" style="fill: rgb(56, 194, 91); stroke: black; stroke-width: 1.63; opacity: 1;"></rect><rect class="rect" id="2_4" width="10" height="10" x="619" y="387" style="fill: rgb(84, 232, 207); stroke: black; stroke-width: 1.63; opacity: 1;"></rect><rect class="rect" id="2_5" width="10" height="10" x="627" y="395" style="fill: rgb(56, 194, 91); stroke: black; stroke-width: 1.63; opacity: 1;"></rect><rect class="rect" id="2_6" width="10" height="10" x="635" y="403" style="fill: rgb(84, 232, 207); stroke: black; stroke-width: 1.63; opacity: 1;"></rect><rect class="rect" id="2_7" width="10" height="10" x="643" y="411" style="fill: rgb(56, 194, 91); stroke: black; stroke-width: 1.63; opacity: 1;"></rect><rect class="conv" id="conv_0" width="10" height="10" x="319" y="383" style="fill-opacity: 0; stroke: black; stroke-width: 1.63; stroke-opacity: 1;"></rect><rect class="conv" id="conv_1" width="10" height="10" x="485" y="411" style="fill-opacity: 0; stroke: black; stroke-width: 1.63; stroke-opacity: 1;"></rect><line class="link" id="conv_0" x1="329" y1="393" x2="488.9957367775702" y2="415.29022807418073" style="stroke: black; stroke-width: 0.815; stroke-opacity: 1;"></line><line class="link" id="conv_0" x1="329" y1="383" x2="488.9957367775702" y2="415.29022807418073" style="stroke: black; stroke-width: 0.815; stroke-opacity: 1;"></line><line class="link" id="conv_1" x1="495" y1="421" x2="645.2835301152852" y2="416.4766769945862" style="stroke: black; stroke-width: 0.815; stroke-opacity: 1;"></line><line class="link" id="conv_1" x1="495" y1="411" x2="645.2835301152852" y2="416.4766769945862" style="stroke: black; stroke-width: 0.815; stroke-opacity: 1;"></line><polygon class="poly" id="fc_0" points="728,229 738,229 1056,547 1046,547" style="fill: rgb(56, 194, 91); stroke: black; stroke-width: 1.63; opacity: 1;"></polygon><polygon class="poly" id="fc_1" points="1058,384.025 1068,384.025 1075.95,391.97499999999997 1065.95,391.97499999999997" style="fill: rgb(56, 194, 91); stroke: black; stroke-width: 1.63; opacity: 1;"></polygon><line class="line" id="fc_0" x1="653" y1="421" x2="1046" y2="547" style="stroke: black; stroke-width: 0.815; stroke-opacity: 1; opacity: 1;"></line><line class="line" id="fc_0" x1="597" y1="355" x2="728" y2="229" style="stroke: black; stroke-width: 0.815; stroke-opacity: 1; opacity: 1;"></line><line class="line" id="fc_1" x1="1056" y1="547" x2="1065.95" y2="391.975" style="stroke: black; stroke-width: 0.815; stroke-opacity: 1; opacity: 1;"></line><line class="line" id="fc_1" x1="738" y1="229" x2="1058" y2="384.025" style="stroke: black; stroke-width: 0.815; stroke-opacity: 1; opacity: 1;"></line><text class="text" dy=".35em" font-family="sans-serif" x="380.5" y="701" style="font-size: 16px; opacity: 1;">Input Layer</text><text class="text" dy=".35em" font-family="sans-serif" x="542.5" y="701" style="font-size: 16px; opacity: 1;">Conv1</text><text class="text" dy=".35em" font-family="sans-serif" x="755" y="701" style="font-size: 16px; opacity: 1;">Conv2</text><text class="info" dy="-0.3em" font-family="sans-serif" x="319" y="368" style="font-size: 16px;">1@10x10</text><text class="info" dy="-0.3em" font-family="sans-serif" x="429" y="340" style="font-size: 16px;">8@10x10</text><text class="info" dy="-0.3em" font-family="sans-serif" x="587" y="340" style="font-size: 16px;">8@10x10</text><text class="info" dy="-0.3em" font-family="sans-serif" x="728" y="214" style="font-size: 16px;">1x200</text><text class="info" dy="-0.3em" font-family="sans-serif" x="1058" y="369.025" style="font-size: 16px;">1x5</text></g></svg>